<?xml version="1.0" standalone="no"?>
<!DOCTYPE svg PUBLIC "-//W3C//DTD SVG 20010904//EN"
 "http://www.w3.org/TR/2001/REC-SVG-20010904/DTD/svg10.dtd">
<svg version="1.0" xmlns="http://www.w3.org/2000/svg"
 width="600.000000pt" height="736.000000pt" viewBox="0 0 600.000000 736.000000"
 preserveAspectRatio="xMidYMid meet">
<metadata>
Created by potrace 1.16, written by Peter Selinger 2001-2019
</metadata>
<g transform="translate(0.000000,736.000000) scale(0.100000,-0.100000)"
fill="#000000" stroke="none">
<path d="M1280 7059 c-25 -5 -55 -7 -67 -4 -12 3 -32 0 -45 -5 -20 -9 -18 -9
12 -5 27 3 23 1 -15 -11 -27 -8 -87 -29 -132 -45 -46 -17 -88 -27 -94 -23 -7
4 -9 3 -6 -3 8 -13 -68 -47 -84 -38 -8 5 -10 4 -5 -3 7 -12 6 -13 -32 -17 -12
-1 -26 -6 -30 -10 -4 -5 1 -5 11 -2 28 10 20 -1 -13 -18 -17 -9 -34 -14 -39
-11 -4 3 -17 -1 -27 -10 -18 -14 -18 -15 4 -4 34 17 26 5 -18 -24 -47 -31 -65
-34 -30 -5 l25 21 -25 -14 c-14 -9 -25 -21 -25 -28 0 -8 -6 -15 -14 -18 -9 -3
-11 0 -5 9 7 12 5 12 -9 0 -20 -16 -22 -25 -5 -16 7 4 4 0 -6 -9 -10 -8 -22
-13 -27 -11 -4 3 -11 0 -15 -6 -5 -8 -3 -9 7 -4 11 6 11 5 3 -4 -6 -7 -18 -13
-27 -15 -20 -3 -48 -26 -42 -35 2 -4 -31 -41 -73 -82 -42 -41 -63 -58 -47 -39
l30 35 -38 -34 c-37 -35 -47 -48 -26 -35 7 4 10 1 7 -7 -3 -8 -10 -14 -15 -14
-6 0 -15 -4 -20 -9 -5 -5 -3 -6 5 -2 6 4 12 3 12 -2 0 -11 -21 -30 -33 -30 -5
0 -12 -4 -15 -8 -4 -4 -1 -4 7 1 9 5 12 3 9 -6 -3 -8 -11 -13 -17 -11 -7 1
-10 -2 -7 -7 9 -14 -34 -82 -47 -74 -5 3 -7 1 -3 -5 8 -13 -24 -83 -36 -76 -4
3 -5 -3 -1 -12 5 -13 3 -15 -7 -9 -9 5 -11 4 -6 -3 4 -7 -7 -53 -23 -104 -43
-131 -63 -262 -64 -408 0 -196 35 -364 104 -502 32 -63 35 -73 17 -62 -7 4 -8
3 -4 -5 4 -6 12 -8 18 -5 7 5 9 1 5 -9 -4 -10 -2 -16 5 -14 7 1 13 -8 14 -21
1 -13 9 -31 19 -40 17 -16 17 -15 0 13 l-18 30 26 -30 c27 -30 35 -51 17 -40
-20 12 -9 -2 22 -31 l33 -29 -25 30 c-23 28 -22 28 12 -4 l36 -33 -16 -34
c-11 -25 -18 -31 -25 -22 -6 9 -7 8 -3 -4 3 -9 -2 -52 -11 -95 -14 -67 -14
-89 -4 -153 7 -41 13 -88 13 -103 1 -21 3 -25 10 -15 7 9 8 7 5 -9 -3 -13 0
-26 5 -30 7 -4 8 -1 3 7 -6 9 -4 11 4 6 7 -5 10 -14 7 -22 -3 -8 0 -13 6 -11
6 1 13 -4 16 -12 3 -9 0 -11 -8 -6 -8 5 -1 -8 15 -28 16 -20 31 -34 34 -31 2
2 -6 16 -20 31 -19 22 19 -11 111 -96 15 -14 -29 15 -50 33 -18 15 -21 16 -11
3 17 -21 78 -66 67 -49 -10 17 -3 15 48 -10 41 -20 45 -25 59 -80 15 -57 14
-62 -9 -131 -34 -100 -70 -243 -91 -367 -23 -133 -26 -593 -5 -735 18 -117 56
-289 88 -393 13 -45 22 -88 18 -95 -4 -7 -3 -9 1 -5 10 10 77 -162 70 -180 -3
-8 0 -10 7 -6 8 5 9 1 4 -12 -4 -10 -4 -15 0 -11 10 10 76 -132 67 -146 -3 -6
-1 -7 5 -3 14 8 66 -90 56 -106 -4 -7 -3 -8 4 -4 14 8 36 -30 26 -46 -4 -7 -3
-8 4 -4 13 8 36 -30 27 -44 -4 -6 -1 -9 7 -8 7 2 12 -5 12 -14 -1 -10 3 -16 8
-15 6 1 13 -4 16 -12 3 -10 0 -11 -9 -5 -12 7 -12 5 0 -9 15 -19 26 -23 15 -5
-5 7 -3 8 5 4 7 -5 10 -14 7 -22 -3 -7 0 -16 6 -20 7 -5 8 -2 3 7 -8 12 -6 12
8 0 20 -16 23 -36 5 -25 -9 5 -9 2 1 -9 16 -20 25 -22 16 -4 -4 6 5 -1 19 -18
14 -16 24 -35 22 -42 -3 -6 3 -17 12 -25 16 -12 16 -11 2 7 -15 20 -15 20 8 1
12 -11 21 -25 18 -32 -3 -7 5 -20 17 -31 l22 -18 -20 25 -20 25 28 -24 c27
-25 37 -48 15 -35 -7 4 9 -16 36 -44 27 -28 52 -49 56 -47 8 5 76 -63 73 -73
0 -4 2 -6 7 -5 4 1 20 -11 35 -27 16 -17 25 -30 20 -30 -5 0 4 -13 20 -30 16
-16 32 -30 37 -30 5 0 -6 14 -24 31 l-33 31 41 -31 c22 -16 47 -38 55 -48 13
-17 13 -17 -6 -3 -18 14 -19 14 -7 -2 8 -9 19 -15 26 -12 7 3 21 -6 32 -18 19
-23 19 -23 -1 -8 -20 15 -20 14 -1 -8 20 -23 32 -30 21 -12 -10 17 12 11 26
-7 12 -15 12 -16 -1 -8 -13 8 -13 7 -1 -8 15 -18 26 -23 16 -7 -11 18 10 10
40 -17 l30 -26 -30 18 c-28 17 -29 17 -13 0 9 -10 27 -18 40 -19 13 0 23 -6
23 -13 0 -17 12 -26 37 -27 13 -1 22 -7 21 -14 -2 -6 7 -16 20 -22 21 -11 21
-10 3 4 -23 18 -14 21 15 5 11 -5 16 -15 13 -21 -4 -6 -3 -8 4 -5 10 7 125
-53 118 -61 -3 -2 -17 4 -33 13 l-28 17 25 -21 c14 -11 31 -19 38 -16 18 6
162 -67 155 -78 -3 -6 -1 -7 5 -3 17 10 205 -65 190 -76 -9 -6 -7 -8 7 -4 11
3 76 -12 144 -32 99 -31 126 -43 137 -62 17 -31 18 -43 2 -34 -8 4 -10 3 -5
-2 5 -5 14 -9 20 -9 7 0 12 -8 12 -17 0 -10 6 -23 13 -30 6 -6 12 -8 12 -4 0
5 7 3 15 -4 8 -7 13 -16 10 -20 -3 -4 3 -14 12 -21 12 -10 14 -10 9 -1 -10 16
-1 15 37 -4 21 -12 53 -16 97 -15 93 2 119 5 114 13 -2 4 5 9 16 13 11 3 33
18 50 31 l29 25 6 -28 c3 -15 17 -63 31 -106 13 -43 21 -84 17 -90 -3 -7 -3
-9 2 -5 10 9 48 -49 40 -62 -3 -5 0 -12 6 -16 8 -5 9 -3 4 7 -8 12 -6 12 8 0
20 -16 23 -36 5 -25 -7 4 7 -14 32 -40 25 -26 54 -52 65 -58 11 -6 -5 12 -35
42 -30 29 -36 36 -13 17 23 -19 51 -40 62 -47 12 -6 18 -16 15 -22 -4 -6 -3
-8 3 -5 5 3 31 0 58 -8 61 -19 148 -18 200 0 50 18 57 18 25 0 -14 -8 -20 -14
-15 -14 17 -1 40 18 40 31 0 7 8 13 17 13 9 0 20 4 25 9 5 5 2 6 -7 1 -13 -8
-13 -7 -1 8 11 14 17 15 30 5 26 -20 27 -22 6 -14 -11 4 -16 3 -11 -1 4 -4 15
-8 24 -8 10 -1 43 -7 75 -14 48 -12 66 -12 115 0 31 7 64 13 74 12 9 -2 22 5
29 15 11 14 11 15 -1 5 -8 -7 -18 -13 -23 -13 -5 0 2 9 16 20 29 23 42 26 31
8 -4 -7 4 -3 18 10 14 13 25 31 24 40 0 9 6 17 14 17 8 0 15 7 16 15 0 8 4 28
8 43 6 21 13 26 25 21 66 -27 148 -30 206 -8 22 9 48 16 59 17 10 1 37 19 60
40 22 21 35 35 27 31 -9 -4 -12 -2 -9 7 3 8 10 13 15 12 5 -1 9 6 10 15 1 9 9
42 18 72 13 45 16 87 12 227 -4 144 -2 173 10 177 23 9 30 6 11 -5 -10 -5 -18
-15 -18 -20 0 -6 8 -3 18 7 9 10 17 21 17 26 0 13 65 49 76 42 5 -3 8 0 7 7
-2 6 3 14 11 17 8 3 11 0 7 -7 -11 -17 0 -13 15 6 12 14 12 16 -1 9 -8 -4 -4
2 10 13 14 11 29 21 34 21 6 0 1 -7 -10 -16 -18 -14 -18 -15 3 -4 13 6 22 16
20 23 -1 7 6 12 15 12 9 0 20 4 25 9 5 5 2 6 -7 1 -13 -8 -13 -7 -1 8 16 20
36 23 25 5 -4 -8 -3 -10 2 -5 5 5 9 14 9 20 0 7 10 12 22 13 19 1 123 78 123
91 0 3 -21 -13 -47 -34 -45 -37 -91 -69 -68 -46 41 39 116 93 123 89 5 -3 20
7 33 22 l24 27 -30 -25 -30 -25 30 33 c16 18 34 31 41 28 6 -2 65 50 130 117
127 129 177 185 157 173 -24 -13 -13 5 40 72 30 37 68 88 86 115 34 51 52 65
25 19 l-16 -27 20 25 c11 13 18 28 15 33 -3 4 6 25 19 45 14 20 48 81 77 135
29 53 57 95 62 92 5 -4 6 1 3 9 -3 8 5 34 17 58 12 23 41 94 64 156 23 61 45
109 49 105 4 -4 5 -1 2 7 -6 16 27 134 35 126 2 -2 5 8 5 22 3 57 28 152 36
140 6 -8 7 -5 3 9 -3 13 2 71 12 130 14 84 18 164 18 358 0 255 -6 324 -47
525 -12 58 -22 117 -22 132 -1 14 -4 24 -7 22 -9 -5 -40 116 -33 129 4 7 3 8
-1 4 -11 -9 -86 185 -89 228 -1 17 -8 39 -15 50 -7 11 -10 13 -8 5 3 -8 8 -24
11 -35 4 -11 -2 -2 -13 20 -12 26 -27 100 -41 205 -22 170 -73 420 -116 571
-14 47 -22 95 -18 105 4 14 3 15 -4 6 -6 -10 -18 12 -41 75 -18 48 -34 102
-35 118 -1 17 -8 39 -15 50 -7 11 -10 13 -8 5 3 -8 8 -24 12 -35 3 -11 -3 -3
-15 18 -12 21 -18 46 -15 57 3 10 1 21 -4 25 -7 4 -9 -1 -5 -12 5 -17 5 -17
-6 0 -6 9 -8 22 -4 29 4 6 3 8 -3 5 -13 -8 -26 20 -16 35 4 7 1 8 -7 3 -10 -6
-12 -4 -7 9 4 10 3 15 -3 11 -11 -7 -33 31 -26 44 3 4 -1 17 -10 27 -14 18
-14 17 -4 -6 11 -24 10 -24 -5 -5 -8 11 -13 25 -11 32 3 7 0 12 -6 10 -6 -1
-13 4 -16 12 -3 10 0 11 9 5 12 -7 12 -5 0 9 -16 20 -25 23 -15 5 11 -20 -9 2
-40 45 -15 20 -25 41 -22 46 3 5 -2 15 -12 22 -16 13 -16 12 -2 -6 15 -20 15
-20 -8 -1 -12 11 -21 25 -18 32 2 6 -10 25 -27 40 l-32 29 30 -35 c16 -19 2
-8 -32 24 -34 33 -60 63 -58 66 7 11 -44 55 -63 55 -9 0 -17 7 -17 15 0 8 -8
14 -16 12 -9 -1 -23 5 -30 15 -9 11 -10 14 -1 9 18 -11 15 -1 -5 15 -14 12
-16 12 -9 0 6 -9 5 -12 -5 -9 -8 3 -13 10 -12 16 2 6 -3 9 -11 6 -8 -3 -17 0
-22 7 -4 8 -3 10 4 5 18 -11 14 0 -5 15 -11 10 -14 10 -9 2 9 -16 1 -16 -25
-2 -11 5 -17 14 -14 19 3 5 -3 14 -14 19 -30 17 -39 12 -11 -5 33 -20 13 -13
-85 30 -268 118 -600 136 -955 52 -222 -53 -388 -115 -643 -243 -70 -35 -133
-61 -139 -57 -6 4 -8 3 -5 -3 9 -14 -129 -96 -145 -87 -7 4 -8 3 -4 -4 8 -14
-30 -36 -46 -26 -7 4 -8 3 -4 -4 8 -13 -30 -36 -44 -27 -6 4 -9 1 -8 -6 2 -7
-7 -14 -18 -15 -21 -1 -84 -40 -84 -50 0 -3 12 3 28 14 66 46 67 38 0 -11 -39
-29 -54 -34 -42 -15 4 7 3 8 -5 4 -6 -4 -9 -11 -6 -16 4 -7 -36 -40 -49 -40
-3 0 -3 13 0 28 3 16 0 55 -6 88 -7 32 -13 69 -14 81 0 11 -5 19 -10 15 -5 -3
-6 3 -2 14 4 10 4 15 0 11 -4 -4 -13 1 -20 11 -17 22 -18 35 -1 26 7 -4 9 -3
4 2 -5 5 -12 9 -15 9 -13 0 -32 16 -32 26 0 6 6 7 13 3 6 -4 -8 13 -31 38 -24
25 -51 45 -60 44 -9 0 -17 4 -17 11 0 6 -4 15 -9 20 -5 5 -6 3 -2 -4 4 -7 3
-13 -1 -13 -5 0 -7 29 -5 65 5 75 -22 247 -50 322 -10 29 -16 58 -12 64 4 7 3
9 -3 6 -6 -4 -15 5 -22 19 -15 35 -14 41 5 18 14 -18 15 -18 4 3 -6 13 -15 22
-19 20 -12 -3 -63 72 -56 83 3 4 -3 14 -13 21 -16 13 -16 13 -2 -6 14 -19 14
-19 -3 -6 -10 8 -16 20 -13 26 5 15 -47 68 -71 71 -9 2 -23 10 -32 20 -13 14
-13 15 -1 9 9 -5 12 -4 7 1 -5 5 -13 10 -18 10 -5 1 -14 2 -20 3 -5 0 -8 5 -4
10 3 5 0 13 -6 17 -8 5 -9 3 -4 -6 5 -8 3 -11 -6 -8 -8 3 -13 11 -11 17 1 7
-2 10 -7 7 -5 -3 -37 7 -72 23 -35 16 -88 34 -117 40 -62 13 -277 13 -342 0z
m325 -154 c186 -49 338 -215 389 -426 14 -57 24 -225 14 -233 -1 -2 -31 -6
-64 -9 l-62 -6 -11 47 c-34 134 -143 282 -248 335 -62 32 -138 50 -172 42 -23
-6 -21 -8 25 -39 99 -67 191 -191 244 -327 16 -43 30 -80 30 -82 0 -2 -21 -12
-47 -22 -27 -9 -67 -28 -90 -41 -49 -28 -53 -29 -53 -9 0 32 -71 155 -118 203
-68 69 -139 104 -227 109 l-70 5 35 -28 c90 -70 180 -176 225 -266 25 -50 45
-99 45 -110 0 -11 -20 -43 -45 -71 -25 -28 -57 -75 -72 -104 -16 -29 -31 -53
-35 -53 -3 0 -11 15 -17 33 -18 52 -92 163 -150 222 -31 32 -80 68 -115 85
-75 37 -175 58 -208 43 -23 -10 -23 -10 9 -26 97 -51 245 -212 308 -336 79
-157 96 -332 41 -413 -49 -74 -129 -100 -220 -74 -81 24 -135 70 -176 150
l-35 69 1 149 0 150 -28 -34 c-61 -72 -73 -113 -73 -238 0 -108 2 -119 31
-180 41 -84 96 -140 181 -182 61 -30 76 -33 158 -33 77 0 98 4 147 27 81 38
138 100 168 182 l11 29 27 -26 c86 -83 254 -98 387 -36 88 42 205 173 205 232
0 15 -7 12 -42 -16 -85 -68 -199 -107 -316 -107 -138 0 -186 44 -179 165 12
212 250 414 508 432 115 8 171 -9 235 -71 67 -65 78 -104 71 -246 -9 -169 -59
-303 -166 -447 -77 -105 -235 -254 -351 -332 l-95 -64 58 7 c31 3 81 15 110
26 28 11 55 20 58 20 15 0 43 -88 43 -134 -1 -121 -90 -224 -269 -312 -183
-90 -411 -133 -637 -120 -340 18 -508 128 -508 330 0 72 14 141 30 151 4 3 24
-4 43 -15 56 -33 143 -60 229 -71 44 -5 83 -8 85 -5 3 2 -15 15 -39 27 -85 43
-194 124 -275 202 -202 196 -294 410 -295 682 -1 421 167 742 507 967 278 184
637 278 850 223z m2660 -845 c280 -88 468 -304 469 -540 1 -96 -22 -158 -76
-204 l-40 -35 -56 46 c-122 99 -314 204 -462 253 -115 37 -280 60 -435 60
l-143 0 -6 34 c-15 80 46 215 130 285 54 45 166 97 249 115 98 22 276 15 370
-14z m-879 -915 c63 -28 133 -106 190 -211 l42 -77 9 39 c4 21 8 77 7 124 0
49 4 88 10 93 16 11 170 -2 263 -24 96 -22 192 -63 281 -121 l63 -41 -59 -61
c-59 -63 -129 -163 -119 -172 3 -3 23 4 45 15 66 33 181 61 257 61 97 0 157
-23 210 -82 50 -56 74 -116 82 -210 3 -38 10 -68 14 -68 5 0 9 5 9 11 0 6 30
-16 66 -50 83 -76 140 -104 222 -109 73 -5 78 -12 70 -120 -8 -103 -41 -158
-173 -287 -147 -144 -168 -185 -141 -278 8 -29 26 -67 40 -86 l25 -33 -31 -55
c-40 -71 -49 -167 -23 -241 17 -47 17 -56 2 -160 -48 -336 -254 -553 -608
-641 -89 -22 -232 -41 -312 -41 -40 0 -59 -7 -108 -41 -74 -50 -146 -83 -247
-111 -103 -30 -323 -32 -422 -5 -234 65 -432 226 -540 440 -28 55 -50 106 -50
114 0 8 -31 48 -69 89 -215 230 -386 627 -367 850 8 106 57 248 115 336 44 68
52 76 88 81 75 12 147 95 173 200 11 41 15 45 49 51 50 8 102 44 124 86 17 31
18 49 10 170 -4 74 -8 203 -8 287 l0 152 45 46 c25 26 58 56 73 67 l29 20 53
-26 c29 -15 80 -33 114 -39 l61 -11 -7 -40 -6 -39 65 55 c101 86 213 131 298
120 19 -2 58 -14 86 -27z m-1270 -256 c25 -7 62 -27 85 -48 l41 -36 -45 -85
c-24 -47 -46 -92 -49 -100 -5 -12 -9 -10 -23 8 -26 35 -57 62 -73 62 -18 0
-12 -33 23 -124 26 -69 26 -70 10 -130 -23 -89 -30 -197 -15 -249 12 -44 11
-46 -26 -102 l-39 -58 -62 253 -63 252 41 47 c58 64 100 157 106 234 7 98 6
97 89 76z m3218 -1313 c152 -89 168 -349 35 -573 -119 -199 -362 -341 -524
-305 -46 10 -46 8 -9 112 14 40 31 113 37 161 11 87 11 88 42 93 51 10 108 68
155 156 52 102 79 120 173 120 78 0 89 16 35 51 -26 16 -45 19 -91 16 -44 -2
-57 0 -53 10 3 7 10 52 17 100 6 49 16 91 21 94 18 12 120 -10 162 -35z
m-3310 -1649 c131 -75 124 -354 -14 -520 -37 -43 -105 -86 -158 -98 -34 -7
-43 -4 -132 55 -130 87 -133 91 -132 173 2 248 268 487 436 390z m1986 -252
c99 -20 230 -65 315 -107 80 -40 213 -129 248 -166 l28 -29 -128 -75 c-70 -41
-138 -80 -150 -87 -36 -18 -44 -76 -42 -269 4 -208 -5 -248 -62 -305 -37 -38
-42 -39 -90 -35 -34 4 -64 15 -91 34 -48 34 -110 120 -134 184 -25 69 -30 264
-10 379 9 52 15 96 13 98 -6 6 -52 -57 -76 -105 -25 -50 -51 -172 -51 -240 0
-73 27 -181 60 -246 46 -90 36 -164 -29 -219 -41 -34 -109 -37 -158 -7 -47 28
-117 123 -136 184 -52 162 -46 439 11 624 11 34 16 62 11 62 -17 0 -98 -120
-119 -177 -73 -196 -67 -481 14 -645 20 -42 21 -50 9 -68 -19 -26 -74 -35
-129 -20 -57 16 -115 74 -154 154 -85 173 -93 528 -16 718 13 32 20 58 14 58
-5 0 -30 -21 -55 -47 -69 -72 -117 -184 -138 -330 -12 -82 -130 -183 -212
-183 -55 0 -82 25 -113 106 -19 48 -24 78 -24 164 0 179 54 326 164 443 110
118 197 133 347 57 l76 -38 46 33 c66 47 98 61 198 90 151 45 375 48 563 10z"/>
<path d="M3885 5914 c-113 -56 -189 -99 -187 -106 5 -27 55 -138 61 -138 3 0
64 43 136 95 71 52 134 94 139 92 5 -2 39 -46 75 -99 l66 -95 104 49 c57 27
105 47 106 46 2 -2 19 -64 40 -138 20 -74 38 -143 41 -152 4 -15 10 -15 77 3
39 11 73 22 75 24 2 1 -20 54 -48 116 -28 63 -67 151 -87 197 -20 45 -40 82
-45 82 -5 0 -53 -22 -108 -50 -55 -27 -104 -50 -109 -50 -5 0 -34 42 -65 93
-30 50 -61 99 -68 108 -12 15 -32 7 -203 -77z"/>
<path d="M3189 4945 c-153 -56 -304 -257 -345 -460 -33 -162 -8 -329 66 -431
l30 -42 -21 -56 -22 -56 -40 23 c-73 40 -163 137 -202 218 -19 40 -35 79 -35
86 0 6 -4 23 -10 38 l-10 25 -51 -26 c-125 -63 -219 -200 -219 -318 0 -103 59
-186 143 -203 32 -6 32 -7 12 -63 -23 -65 -20 -158 8 -211 28 -52 99 -104 157
-114 l41 -7 -7 -146 c-15 -321 47 -548 191 -701 116 -123 266 -177 426 -153
94 13 241 72 330 132 95 64 216 192 274 291 l50 86 95 -5 c80 -3 104 -1 153
18 31 12 71 33 88 47 37 31 69 92 69 131 l0 28 83 -4 c76 -3 85 -2 123 24 106
69 136 208 88 399 -9 33 -17 62 -19 64 -2 1 -19 -9 -37 -23 -90 -68 -234 -102
-368 -88 -50 6 -64 11 -62 22 2 8 6 39 9 68 l6 53 74 34 c264 122 418 508 313
788 -30 79 -75 134 -140 171 -49 28 -64 31 -135 31 -71 0 -88 -4 -150 -34 -97
-47 -183 -138 -235 -245 -21 -44 -42 -98 -45 -118 -4 -21 -11 -38 -15 -38 -4
0 -36 14 -71 31 -34 17 -103 41 -151 53 -80 19 -88 23 -83 41 47 163 58 292
34 394 -24 107 -104 213 -184 247 -43 17 -158 17 -206 -1z m214 -98 c20 -15
49 -53 66 -88 40 -80 40 -96 3 -69 -73 54 -173 28 -267 -70 -95 -100 -154
-265 -141 -394 l6 -62 -39 -38 c-43 -42 -53 -41 -78 7 -93 180 -32 479 132
642 82 83 131 106 216 102 54 -2 73 -8 102 -30z m46 -183 c29 -21 60 -89 61
-133 l0 -35 -29 28 c-39 37 -102 45 -151 18 -69 -38 -130 -160 -130 -262 0
-33 -4 -38 -45 -58 -25 -12 -48 -22 -50 -22 -12 0 -3 142 11 191 35 118 118
234 194 271 44 22 109 23 139 2z m960 -162 c78 -62 111 -146 111 -278 0 -113
-14 -173 -66 -281 -53 -111 -134 -200 -215 -238 -50 -23 -54 -23 -61 -7 -16
40 -8 68 29 102 135 128 191 414 112 577 -32 65 -83 96 -153 91 -31 -1 -56 -2
-56 -1 0 5 78 48 109 60 59 22 146 11 190 -25z m-171 -82 c95 -58 109 -299 27
-478 -25 -53 -89 -142 -103 -142 -4 0 -16 22 -28 49 l-21 48 34 46 c85 114 97
281 26 359 -27 30 -79 39 -126 23 -23 -8 -43 -12 -45 -10 -8 7 73 87 107 105
47 25 88 25 129 0z m-633 -265 c280 -71 481 -320 462 -573 -13 -172 -119 -277
-317 -314 -68 -13 -213 -4 -300 17 -106 27 -261 108 -324 171 -136 133 -168
319 -87 491 46 95 162 187 268 212 63 15 233 12 298 -4z m-709 -976 c67 -69
154 -110 244 -117 76 -5 141 8 179 37 l24 18 29 -58 c16 -32 45 -72 64 -88
115 -101 289 -122 389 -45 25 19 47 34 50 34 3 0 5 -12 5 -26 0 -22 -77 -145
-100 -159 -5 -3 -73 6 -153 20 -309 53 -562 153 -761 301 l-88 66 6 61 c4 34
10 79 13 100 l6 37 22 -65 c16 -49 34 -79 71 -116z"/>
<path d="M1980 1684 c-18 -64 -96 -178 -167 -246 -65 -61 -63 -77 7 -58 75 20
166 109 197 193 23 64 13 157 -18 157 -3 0 -12 -21 -19 -46z"/>
</g>
</svg>
